<svg width="2000" height="1000" viewBox="0 0 2000 1000" fill="none" xmlns="http://www.w3.org/2000/svg">
<g clip-path="url(#clip0_474_3526)">
<rect width="2000" height="1000" fill="white"/>
<rect x="1295" y="192" width="226" height="224" fill="#8BC7F8"/>
<path d="M1320 230V383H1489" stroke="#08123D" stroke-width="3"/>
<path opacity="0.5" d="M1362.5 328C1325.3 328.4 1321.67 364.333 1321 382.5H1493.5V228C1483.5 228 1463.1 234 1461.5 258C1459.9 282 1446.5 284.333 1440 282.5C1411.5 275 1403 283.5 1400 308.5C1397.6 328.5 1384.5 328 1362.5 328Z" fill="#F5FAFF"/>
<path d="M1466.5 226.5L1454.99 227.443L1461.56 236.938L1466.5 226.5ZM1335.57 318.322L1459.67 232.444L1458.53 230.799L1334.43 316.678L1335.57 318.322Z" fill="#0070CC"/>
<rect x="78" y="763" width="16" height="237" fill="#08123D"/>
<rect x="292" y="763" width="16" height="237" fill="#08123D"/>
<rect x="67" y="756" width="257" height="31" fill="#53B2FF"/>
<rect x="500" y="717" width="30" height="291" fill="#08123D"/>
<path d="M395 727C395 699.386 417.386 677 445 677H586C613.614 677 636 699.386 636 727V728H395V727Z" fill="#94CFD9"/>
<path d="M652.278 964.262L645.11 907.555C655.48 902.454 681.877 894.402 685.399 903.272C689.803 914.36 703.813 929.028 734.136 933.381C758.395 936.862 767.878 954.32 769.587 962.614L652.278 964.262Z" fill="#04508E"/>
<path d="M866.597 864.283L825.148 832.415C828.514 822.394 840.286 800.063 848.316 803.488C858.353 807.769 876.904 808.117 899.262 791.224C917.148 777.71 934.595 782.795 941.083 787.026L866.597 864.283Z" fill="#04508E"/>
<path d="M506.5 705.5C430.9 709.9 426.667 658 434 631.5L587 598C614.333 602.667 677.6 614.2 712 623C746.4 631.8 829.667 743.667 867 798.5L824.5 843.5L706.5 705.5C719.7 731.5 712 858.667 706.5 919L640 914C640.833 851.167 642 724 640 718C638 712 550.167 707.167 506.5 705.5Z" fill="#08123D"/>
<path d="M569 623C600.833 631.667 647.5 640 674 657.5C696.5 672.358 707.5 692 709.5 716.5" stroke="#0070CC" stroke-width="2"/>
<path d="M520 346.5C516.8 340.1 518.667 320.833 520 312L507.5 294L484 302C480.8 330.4 447.667 358.5 431.5 369C445.5 361.8 472.333 366 484 369C537.6 393 546.333 388.667 544 383.5C537.333 373.833 523.2 352.9 520 346.5Z" fill="#F0B6A4"/>
<path d="M579.5 273.5L564.5 219L557.5 192L513 206.5L475.5 237.5L482 306C535.2 338 568 303.5 568.5 275L579.5 273.5Z" fill="#F7C7B8"/>
<path d="M554.5 172C574.5 178.4 570.5 209.833 566 224L559 202.5C550.816 210.5 545.257 202.5 543.5 197.5C529.9 241.1 517.5 228.667 513 217L498.5 245L491.5 278.5C492 328 469.5 343 434.5 381.5C409.099 409.442 405.095 462.814 406.437 492.639C406.801 495.105 407 497.881 407 501C406.768 498.494 406.575 495.69 406.437 492.639C403.534 472.971 390.109 473.038 383 476C340.2 474.4 342.5 444.667 349 430C356.6 419.6 356.833 408 356 403.5C324.5 339 381 313.5 407 298.5C426.426 287.293 429.337 249.918 428.28 229.144C428.139 226.388 428.227 223.599 428.911 220.925C441.693 170.911 503.462 169.317 533.5 175C537.9 170.2 549.333 171 554.5 172Z" fill="#754F40"/>
<path d="M499.573 243.638C491.296 241.226 482.121 246.964 479.08 256.454C476.038 265.944 480.282 275.593 488.558 278.004C493.453 279.431 498.663 278.006 502.732 274.641C498.056 270.492 496.16 263.188 498.471 255.976C499.714 252.099 501.98 248.848 504.791 246.523C503.314 245.213 501.559 244.217 499.573 243.638Z" fill="#F0B6A4"/>
<path d="M406.5 507.5C396.1 414.3 431.5 373.333 450.5 364.5C462.9 357.7 479 361.667 485.5 364.5C513.5 380.9 536.167 383.667 544 383C580.8 422.2 584.333 461.667 581.5 476.5C586.3 513.3 650.833 547.167 682.5 559.5L670.5 563.5L666.5 588L604 600L600 602.5L581.5 608.5C552.7 632.5 471.833 634.167 435 632C420.2 616.8 409.833 542.667 406.5 507.5Z" fill="#008FF5"/>
<path d="M581 477.5C575.667 493.333 569.2 528.5 582 544.5" stroke="#0070CC" stroke-width="2" stroke-linecap="round"/>
<path d="M452 386C465.167 385.5 492.8 392.9 498 426.5C503.2 460.1 516.833 520.167 523 546" stroke="#0070CC" stroke-width="2" stroke-linecap="round" stroke-linejoin="round"/>
<path d="M504.5 554.5C523.167 545.333 582.3 534.3 669.5 563.5" stroke="#0070CC" stroke-width="2" stroke-linecap="round" stroke-linejoin="round"/>
<path d="M432.5 491.5C440.167 525 462.6 593.7 491 600.5C519.4 607.3 619.5 595 666 588" stroke="#0070CC" stroke-width="2" stroke-linecap="round" stroke-linejoin="round"/>
<ellipse cx="556.5" cy="249.5" rx="2.5" ry="3.5" fill="#08123D"/>
<path d="M544.5 235C545.833 232.5 550.1 228 556.5 230" stroke="#754F40" stroke-width="2" stroke-linecap="round" stroke-linejoin="round"/>
<path d="M538.5 271.5C539.833 279.667 546.8 295.5 564 293.5" stroke="#08123D" stroke-width="2" stroke-linecap="round" stroke-linejoin="round"/>
<path d="M570 237.5L579.5 273.5L568.5 275.5" stroke="#754F40" stroke-width="2" stroke-linecap="round"/>
<path d="M757 567.5C718.6 546.3 682.833 555 670 563L665.5 587.5L688 585L742 583C767.6 579.4 762.667 571.167 757 567.5Z" fill="#F7C7B8"/>
<path d="M670 563C671 563 713 547.5 755.5 566.5" stroke="#DE9D88" stroke-linecap="round"/>
<path fill-rule="evenodd" clip-rule="evenodd" d="M1691.18 159C1695.73 159 1700.11 158.453 1704.21 157.441C1706.78 170.517 1718.48 180.762 1733.18 182.678C1732.85 184.407 1732.68 186.185 1732.68 188C1732.68 196.007 1736.06 203.305 1741.6 208.806C1735.96 211.588 1731.28 215.745 1728.12 220.776C1721.19 220.999 1714.6 223.735 1709.82 228.992C1699.8 240.033 1701.62 258.011 1713.89 269.147C1726.16 280.284 1744.23 280.361 1754.25 269.319C1754.94 268.56 1755.57 267.768 1756.15 266.947C1756.82 266.982 1757.5 267 1758.18 267C1777.23 267 1792.68 253.121 1792.68 236C1792.68 227.993 1789.3 220.695 1783.75 215.194C1794.44 209.926 1801.68 199.723 1801.68 188C1801.68 172.403 1788.86 159.496 1772.17 157.322C1772.5 155.593 1772.68 153.815 1772.68 152C1772.68 134.879 1757.23 121 1738.18 121C1735.99 121 1733.85 121.183 1731.77 121.533C1727.79 107.516 1711.13 97 1691.18 97C1673.73 97 1658.8 105.043 1652.66 116.437C1645.98 113.007 1637.89 111 1629.18 111C1606.26 111 1587.68 124.879 1587.68 142C1587.68 151.166 1593 159.402 1601.47 165.078C1585.38 166.211 1572.68 179.622 1572.68 196C1572.68 213.121 1586.56 227 1603.68 227C1620.8 227 1634.68 213.121 1634.68 196C1634.68 186.758 1630.63 178.46 1624.22 172.781C1625.84 172.926 1627.5 173 1629.18 173C1646.63 173 1661.56 164.957 1667.69 153.563C1674.37 156.993 1682.46 159 1691.18 159Z" fill="#08123D"/>
<path d="M1658.68 345.5C1667.88 332.7 1662.51 294.167 1658.68 276.5L1709.68 255L1715.18 299.5C1711.58 298.7 1676.01 329.833 1658.68 345.5Z" fill="#D4875A"/>
<path d="M1621.68 267.5C1594.48 240.3 1607.34 189.5 1617.18 167.5C1661.68 113.5 1708.68 166 1720.18 199C1729.38 225.4 1718.34 251.667 1711.68 261.5C1674.48 301.9 1636.18 282.333 1621.68 267.5Z" fill="#ECA379"/>
<path fill-rule="evenodd" clip-rule="evenodd" d="M1668.93 171.175C1664.23 175.417 1658.01 178 1651.18 178C1643.78 178 1637.1 174.972 1632.29 170.089C1629.08 173.714 1624.4 176 1619.18 176C1609.51 176 1601.68 168.165 1601.68 158.5C1601.68 148.835 1609.51 141 1619.18 141C1621.69 141 1624.09 141.531 1626.25 142.488C1629.94 132.289 1639.71 125 1651.18 125C1664.57 125 1675.64 134.929 1677.42 147.825C1682.12 143.583 1688.35 141 1695.18 141C1709.81 141 1721.68 152.864 1721.68 167.5C1721.68 170.057 1721.31 172.53 1720.64 174.869C1727.63 177.164 1732.68 183.742 1732.68 191.5C1732.68 201.165 1724.84 209 1715.18 209C1706.32 209 1698.99 202.413 1697.84 193.868C1696.96 193.955 1696.07 194 1695.18 194C1681.79 194 1670.72 184.071 1668.93 171.175Z" fill="#08123D"/>
<path d="M1714.46 205.443C1722.12 203.209 1730.62 208.523 1733.43 217.311C1736.25 226.099 1732.32 235.034 1724.66 237.267C1720.12 238.588 1715.3 237.269 1711.53 234.152C1715.86 230.31 1717.62 223.547 1715.48 216.868C1714.33 213.278 1712.23 210.267 1709.63 208.115C1710.99 206.901 1712.62 205.979 1714.46 205.443Z" fill="#D5875A"/>
<ellipse cx="1744.18" cy="188" rx="34.5" ry="31" fill="#08123D"/>
<path d="M1630.78 201.473L1625.95 234.935C1628.61 235.277 1634.19 235.614 1635.23 234.233" stroke="black" stroke-width="2" stroke-linecap="round"/>
<path d="M1641.93 251.592C1649.66 252.493 1664.97 248.757 1664.34 226.606" stroke="black" stroke-width="2" stroke-linecap="round"/>
<path d="M1646.78 192.706C1649.37 192.226 1654.98 192.892 1656.74 199.393" stroke="black" stroke-width="2" stroke-linecap="round"/>
<path d="M1611.76 197.951C1612.8 195.47 1616.51 190.825 1623.06 192.097" stroke="black" stroke-width="2" stroke-linecap="round"/>
<ellipse cx="1619.18" cy="205.5" rx="2.5" ry="3.5" fill="#08123D"/>
<ellipse cx="1644.18" cy="207.5" rx="2.5" ry="3.5" fill="#08123D"/>
<path d="M1543.18 1003L1600.68 630.5L1779.18 620.5L1827.68 1008L1689.68 1003L1678.18 909.5L1656.68 1000.5L1543.18 1003Z" fill="#0070CC"/>
<path d="M1419.68 346C1414.48 366.4 1440.51 412.833 1454.18 433.5L1485.68 418L1476.68 393.5V370.5C1476.68 364.5 1474.18 361 1467.68 370.5C1462.48 378.1 1456.51 375.667 1454.18 373.5L1447.18 361C1432.78 340.2 1422.84 342.333 1419.68 346Z" fill="#ECA379"/>
<path d="M1602.18 386.5C1634.58 327.7 1656.68 318.667 1664.18 321.5L1662.68 339L1715.18 296.5C1773.18 299 1783.68 370 1809.18 454.5C1829.58 522.1 1812.34 555 1801.18 563L1796.68 637.5L1575.68 641L1587.18 543.5C1538.38 625.9 1472.51 509.167 1445.68 440.5L1485.18 408.5L1535.18 480L1602.18 386.5Z" fill="#8FD1B3"/>
<path d="M1610.18 622L1645.18 595.5L1675.68 620C1660.68 634.167 1627.68 664.5 1615.68 672.5C1603.68 680.5 1602.01 674.5 1602.68 670.5C1614.18 652.833 1635.38 618.4 1628.18 622C1620.98 625.6 1613.18 623.5 1610.18 622Z" fill="#ECA379"/>
<path d="M1731.68 409C1737.01 443.833 1748.48 514.3 1751.68 517.5C1729.51 526.5 1677.18 554.6 1645.18 595L1676.18 620.5C1714.01 605.667 1792.28 573 1802.68 561" stroke="#1A6E47" stroke-width="2"/>
<path d="M1617.68 404C1607.84 441.167 1587.88 523.4 1586.68 555" stroke="#1A6E47" stroke-width="2"/>
<path d="M1530.68 473L1545.18 495.5" stroke="#1A6E47" stroke-width="2"/>
<path d="M1655.68 719L1684.68 953" stroke="#08123D" stroke-width="2"/>
<path d="M1024 651C1024 704.572 980.572 748 927 748C873.428 748 830 704.572 830 651C830 597.428 873.428 554 927 554C980.572 554 1024 597.428 1024 651ZM889.271 651C889.271 671.837 906.163 688.729 927 688.729C947.837 688.729 964.729 671.837 964.729 651C964.729 630.163 947.837 613.271 927 613.271C906.163 613.271 889.271 630.163 889.271 651Z" fill="#8BC7F8"/>
<path d="M1024 651C1024 664.813 1021.05 678.467 1015.35 691.048C1009.64 703.628 1001.32 714.846 990.932 723.95L951.867 679.375C955.908 675.834 959.146 671.471 961.364 666.577C963.582 661.684 964.729 656.373 964.729 651H1024Z" fill="#1172C8"/>
<path d="M999.501 715.44C990.453 725.621 979.362 733.781 966.951 739.391C954.539 745.001 941.086 747.934 927.465 747.999C913.845 748.064 900.364 745.26 887.899 739.77C875.435 734.28 864.266 726.226 855.12 716.133L899.041 676.334C902.599 680.26 906.943 683.393 911.791 685.528C916.64 687.664 921.883 688.754 927.181 688.729C932.479 688.704 937.712 687.563 942.539 685.381C947.367 683.199 951.681 680.025 955.2 676.065L999.501 715.44Z" fill="#53B2FF"/>
<path d="M858.411 719.589C845.787 706.966 836.892 691.103 832.705 673.749C828.518 656.394 829.202 638.221 834.681 621.23L891.091 639.42C888.96 646.029 888.694 653.098 890.323 659.848C891.951 666.599 895.411 672.769 900.321 677.679L858.411 719.589Z" fill="#E3EEFF"/>
<path d="M833.463 625.312C835.954 616.242 839.751 607.583 844.734 599.607L895.001 631.01C893.063 634.113 891.586 637.481 890.618 641.008L833.463 625.312Z" fill="#C0D9FF"/>
<path d="M1464 651C1464 704.572 1420.57 748 1367 748C1313.43 748 1270 704.572 1270 651C1270 597.428 1313.43 554 1367 554C1420.57 554 1464 597.428 1464 651ZM1329.27 651C1329.27 671.837 1346.16 688.729 1367 688.729C1387.84 688.729 1404.73 671.837 1404.73 651C1404.73 630.163 1387.84 613.271 1367 613.271C1346.16 613.271 1329.27 630.163 1329.27 651Z" fill="#08123D"/>
<path d="M1464 651C1464 664.813 1461.05 678.467 1455.35 691.048C1449.64 703.628 1441.32 714.846 1430.93 723.95L1391.87 679.375C1395.91 675.834 1399.15 671.471 1401.36 666.577C1403.58 661.684 1404.73 656.373 1404.73 651H1464Z" fill="#FFE800"/>
<path d="M1439.5 715.44C1430.45 725.621 1419.36 733.781 1406.95 739.391C1394.54 745.001 1381.09 747.934 1367.47 747.999C1353.85 748.064 1340.36 745.26 1327.9 739.77C1315.43 734.28 1304.27 726.226 1295.12 716.133L1339.04 676.334C1342.6 680.26 1346.94 683.393 1351.79 685.528C1356.64 687.664 1361.88 688.754 1367.18 688.729C1372.48 688.704 1377.71 687.563 1382.54 685.381C1387.37 683.199 1391.68 680.025 1395.2 676.065L1439.5 715.44Z" fill="#94CFD9"/>
<path d="M1298.41 719.589C1285.79 706.966 1276.89 691.103 1272.71 673.749C1268.52 656.394 1269.2 638.221 1274.68 621.23L1331.09 639.42C1328.96 646.029 1328.69 653.098 1330.32 659.848C1331.95 666.599 1335.41 672.769 1340.32 677.679L1298.41 719.589Z" fill="#8FD1B3"/>
<path fill-rule="evenodd" clip-rule="evenodd" d="M1152 558.035V650L1234.29 621.073C1236.7 629.126 1238 637.662 1238 646.5C1238 695.377 1198.38 735 1149.5 735C1100.62 735 1061 695.377 1061 646.5C1061 597.623 1100.62 558 1149.5 558C1150.34 558 1151.17 558.012 1152 558.035ZM1166.99 559.727C1178.46 562.516 1188.22 566.622 1196.47 571.481C1187.58 565.902 1177.63 561.86 1166.99 559.727Z" fill="#FF9908"/>
<path d="M1163 634V541C1220.6 548.2 1240.33 587.333 1243 606L1163 634Z" fill="#008FF5"/>
<rect x="662" y="166" width="553" height="363" rx="35" fill="#FDE7CF"/>
<rect x="724" y="391" width="19" height="139" fill="#008FF5"/>
<rect x="743" y="438" width="19" height="92" fill="#FF9908"/>
<rect x="835" y="394" width="19" height="136" fill="#FF9908"/>
<rect x="816" y="391" width="19" height="139" fill="#008FF5"/>
<rect x="927" y="349" width="19" height="181" fill="#FF9908"/>
<rect x="908" y="281" width="19" height="249" fill="#008FF5"/>
<rect x="1019" y="302" width="19" height="228" fill="#FF9908"/>
<rect x="1000" y="325" width="19" height="205" fill="#008FF5"/>
<rect x="1111" y="234" width="19" height="296" fill="#FF9908"/>
<rect x="1092" y="406" width="19" height="124" fill="#008FF5"/>
<path d="M731 368L834 285L1006 223L1123 204" stroke="#08123D" stroke-width="3"/>
<circle cx="730.5" cy="367.5" r="5.5" fill="#08123D"/>
<circle cx="831.5" cy="285.5" r="5.5" fill="#08123D"/>
<circle cx="1005.5" cy="222.5" r="5.5" fill="#08123D"/>
<circle cx="1120.5" cy="203.5" r="5.5" fill="#08123D"/>
<path d="M1507 190V95C1507 78.4315 1493.57 65 1477 65H951C934.431 65 921 78.4315 921 95V166" stroke="#08123D" stroke-width="2"/>
<path d="M921 123H329" stroke="#08123D" stroke-width="2"/>
<rect x="1079" y="37" width="279" height="72" rx="36" fill="#008FF5"/>
<circle cx="1319.5" cy="73.5" r="29.5" fill="#E3EEFF"/>
<rect x="1088.5" y="43.5" width="260" height="58.0968" rx="29.0484" stroke="#F6FBFF"/>
<circle cx="251" cy="149" r="86" fill="#08123D"/>
<mask id="mask0_474_3526" style="mask-type:alpha" maskUnits="userSpaceOnUse" x="165" y="63" width="172" height="172">
<circle cx="251" cy="149" r="86" fill="#C4C4C4"/>
</mask>
<g mask="url(#mask0_474_3526)">
<path d="M204.321 129.184L154.626 218.082C154.434 218.424 154.309 218.802 154.259 219.194C154.21 219.586 154.237 219.983 154.339 220.361C154.441 220.739 154.616 221.09 154.852 221.394C155.089 221.697 155.383 221.947 155.717 222.127C169.354 229.358 185.218 230.801 200.02 226.158C214.823 221.514 227.431 211.141 235.232 197.186L286.385 105.68C272.677 97.5012 256.329 95.383 240.939 99.7909C225.549 104.199 212.377 114.772 204.321 129.184Z" fill="#0071CC"/>
<path d="M208.249 106.301L204.486 110.222L221.514 127.974L225.278 124.053L208.249 106.301Z" fill="#0071CC"/>
<path d="M202.981 113.047C207.356 113.014 210.93 109.29 210.964 104.73C210.998 100.17 207.479 96.5015 203.104 96.5354C198.728 96.5693 195.154 100.293 195.12 104.853C195.087 109.412 198.606 113.081 202.981 113.047Z" fill="#0071CC"/>
<path d="M196.064 160.482L195.304 262.759C195.3 263.154 195.372 263.544 195.517 263.906C195.662 264.268 195.876 264.594 196.147 264.866C196.417 265.137 196.739 265.348 197.092 265.485C197.444 265.623 197.821 265.683 198.199 265.664C213.583 264.764 228.135 257.735 238.839 246.034C249.544 234.333 255.582 218.857 255.701 202.811L256.483 97.5336C248.609 97.5945 240.801 99.2711 233.504 102.468C226.206 105.664 219.562 110.318 213.952 116.163C208.342 122.008 203.874 128.931 200.805 136.535C197.736 144.139 196.124 152.277 196.064 160.482Z" fill="#018FF6"/>
<path d="M214.55 160.34C214.465 171.802 218.752 182.76 226.468 190.804C234.185 198.849 244.698 203.32 255.696 203.235L256.337 116.803C250.892 116.845 245.492 118.005 240.444 120.216C235.397 122.426 230.803 125.645 226.922 129.688C223.042 133.731 219.952 138.518 217.829 143.778C215.706 149.037 214.592 154.665 214.55 160.34Z" fill="white"/>
<path d="M292.942 170.981L256.018 160.017L255.697 203.233C264.149 203.167 272.42 200.41 279.4 195.333C286.381 190.256 291.738 183.1 294.755 174.825C294.895 174.445 294.959 174.041 294.942 173.637C294.926 173.233 294.829 172.839 294.659 172.478C294.489 172.117 294.249 171.798 293.953 171.54C293.658 171.283 293.313 171.092 292.942 170.981Z" fill="#FF9A07"/>
<path d="M312.851 139.173C308.865 126.92 301.294 116.324 291.192 108.86C281.089 101.397 268.956 97.4378 256.484 97.5335L256.02 160.017L310.943 142.933C311.308 142.821 311.649 142.633 311.944 142.381C312.24 142.129 312.484 141.818 312.662 141.466C312.84 141.115 312.949 140.731 312.981 140.336C313.014 139.942 312.969 139.547 312.851 139.173Z" fill="#FF9A07"/>
<path d="M238.927 149.117C242.562 149.088 245.531 145.995 245.559 142.207C245.588 138.419 242.664 135.371 239.029 135.399C235.394 135.427 232.425 138.521 232.397 142.309C232.369 146.097 235.293 149.145 238.927 149.117Z" fill="#07133D"/>
</g>
<path d="M155.508 688.621C180.734 663.445 172.342 634.545 166 623H185.054C175.554 652 188.565 677.762 200.554 690.5C216.554 707.5 217.221 737.5 218.054 756.5H137.054C130.913 725.024 139.321 709.756 151.941 692.667C153.008 691.222 154.237 689.889 155.508 688.621Z" fill="#FF9908"/>
<ellipse cx="175.5" cy="623" rx="9.5" ry="2" fill="#754F40"/>
<path d="M175 624.5C171.5 597.667 161.8 537.8 153 519" stroke="#1A6E47"/>
<path d="M119 495.687L153.14 479L164.118 501.46C168.726 510.888 164.82 522.266 155.392 526.874C145.965 531.482 134.587 527.575 129.978 518.148L119 495.687Z" fill="#F7C7B8"/>
<path fill-rule="evenodd" clip-rule="evenodd" d="M118.939 495.051C119.004 495.203 119.072 495.355 119.143 495.507C121.839 501.258 127.858 504.122 132.586 501.906C137.314 499.689 138.961 493.23 136.264 487.479C136.193 487.328 136.12 487.178 136.044 487.031L118.939 495.051ZM136.06 487.023C138.853 492.472 144.679 495.131 149.282 492.973C153.885 490.814 155.568 484.635 153.165 479.003L136.06 487.023Z" fill="#F89577"/>
<path d="M147.557 546.903L166.617 573.109L137.938 558.025C133.74 555.818 132.594 550.332 135.556 546.628C138.667 542.738 144.627 542.874 147.557 546.903Z" fill="#1A6E47" stroke="#1A6E47"/>
<path d="M186.923 574.662L170 592.615L177.246 569.032C178.306 565.58 182.249 563.949 185.438 565.644C188.787 567.424 189.524 571.903 186.923 574.662Z" fill="#1A6E47" stroke="#1A6E47"/>
<path d="M176.438 625C179.938 598.167 189.138 539.8 197.938 521" stroke="#8FD1B3"/>
<path d="M231.938 497.687L197.798 481L186.82 503.46C182.211 512.888 186.118 524.266 195.546 528.874C204.973 533.482 216.351 529.575 220.959 520.148L231.938 497.687Z" fill="#FF9908"/>
<path fill-rule="evenodd" clip-rule="evenodd" d="M231.999 497.051C231.934 497.203 231.866 497.355 231.795 497.507C229.098 503.258 223.08 506.122 218.352 503.906C213.624 501.689 211.977 495.23 214.674 489.479C214.745 489.328 214.818 489.178 214.894 489.031L231.999 497.051ZM214.878 489.023C212.085 494.472 206.259 497.131 201.656 494.973C197.052 492.814 195.37 486.635 197.773 481.003L214.878 489.023Z" fill="#F7C7B8"/>
<path d="M197.718 580.903L178.658 607.109L207.337 592.025C211.535 589.818 212.681 584.332 209.719 580.628C206.608 576.738 200.648 576.874 197.718 580.903Z" fill="#8FD1B3"/>
<path d="M173.89 531.006L189.058 547.098L182.564 525.959C181.613 522.866 178.079 521.404 175.221 522.923C172.219 524.519 171.558 528.533 173.89 531.006Z" fill="#8FD1B3"/>
</g>
<defs>
<clipPath id="clip0_474_3526">
<rect width="2000" height="1000" fill="white"/>
</clipPath>
</defs>
</svg>
