<svg id="Layer_1" data-name="Layer 1" xmlns="http://www.w3.org/2000/svg" viewBox="0 0 1200 1200"><defs><style>.cls-1{fill:#e9e8e8;}.cls-2{fill:#fff;}.cls-3,.cls-8{fill:#1d252e;}.cls-4,.cls-6,.cls-7,.cls-9{fill:none;}.cls-4,.cls-6{stroke:#1d252e;stroke-width:4px;}.cls-4,.cls-6,.cls-7{stroke-linecap:round;}.cls-5{fill:#9dd5c0;}.cls-6,.cls-7{stroke-linejoin:round;}.cls-7{stroke:#fff;stroke-width:3.45px;}.cls-8{font-size:12px;font-family:Montserrat-Bold, Montserrat;font-weight:700;}</style></defs><path id="Path-141" class="cls-1" d="M441.86,467.29c110.69-74.84,365-274.08,498.13-158.15s60.26,672.6-332,612.66c-147.36-22.52-370-34.95-401.22-104C154.88,702.94,372.75,514,441.86,467.29Z"/><path class="cls-2" d="M540.1,858.33H469.62V710.19h-27.2V858.33H374.25A17.64,17.64,0,0,0,356.61,876H557.74A17.64,17.64,0,0,0,540.1,858.33Z"/><circle class="cls-3" cx="541.08" cy="886.63" r="16.66"/><circle class="cls-3" cx="373.27" cy="886.63" r="16.66"/><rect class="cls-3" x="438.78" y="697.97" width="36.79" height="32.89"/><polyline class="cls-4" points="523 858.33 469.62 858.33 469.62 798.52"/><line class="cls-4" x1="392.67" y1="875.97" x2="522.51" y2="875.97"/><path class="cls-4" d="M442.42,798.94v59.39H374.25A17.64,17.64,0,0,0,356.61,876"/><path class="cls-3" d="M572.58,709.77c25-14.9,17.81-33.56,4-42.8s-104.55-14.1-132.14-11.12-124.27,7.27-98.84,51.64C363.44,738.54,547.54,724.66,572.58,709.77Z"/><path class="cls-5" d="M410.56,688.39c-2.71,0-5.46-.1-8.23-.32a90.33,90.33,0,0,1-44-15.43l12.52-4.91s-29.87-31.91-31.39-53c-2.45-34.15-2.18-207.51-2.18-207.51,16.86-19.28,44.34-30.88,73.35-28.52q4.09.33,8.06,1c33.41,5.75,59.75,29.7,63.95,60.41L502.32,584.3C509.74,638.53,466.94,688.21,410.56,688.39Z"/><path class="cls-4" d="M331.91,430.7c21.17-38.38,72.13-51.81,107.38-36"/><path class="cls-3" d="M370.88,667.72l-12.52,4.92a87.84,87.84,0,0,1-38.22-72.89l.2-148.84a62.72,62.72,0,0,1,1.13-11.85,67.56,67.56,0,0,1,15.84-31.81s-.27,173.36,2.18,207.51C341,635.82,370.88,667.72,370.88,667.72Z"/><path id="Path-102" class="cls-3" d="M517.09,354.54q5-14.46-.16-23.16c-5.17-8.71-18.37-20.38-38.62-19s-37,18.4-42.48,37.93q-5.43,19.53,1.21,42.58,4.88,7.65,10.75,8c5.88.38,18-1.86,22.2-5.89Q474.24,391.06,517.09,354.54Z"/><path id="Path-103" class="cls-2" d="M514.5,354.37,519,369.25,516.12,386l-9.27,11.71-9.61,5.13-2.16,29.82L517.52,435l-10.88,18.8c-14.45,6.56-30.87,6.78-48.27,3.79L433.1,430.53l34.07-2.14,4-27.22-8-12.05-3.4-11.22-7.36-1.3-1.51-11.81,5.66-5.58,9.91-1.45,7-10.33-.71-9.08,25.61,15Z"/><path id="Path-86" class="cls-6" d="M514.5,354.37a39.58,39.58,0,0,1,2.66,28.75q-4.11,14.72-20.91,19.64l-1.17,29.94,13.28,1.36"/><path id="Path-87" class="cls-6" d="M514,353.29q-3.82,2.34-14.49-.94t-26.83-14a17.76,17.76,0,0,1-.79,12.19,16.86,16.86,0,0,1-7.75,8.62q-9.07-3-12.09,4.06c-3,7-1,13.1,1.39,14.26,1.57.78,3.66.91,6.29.42q-.5,5.5,4.26,13t7.23,8.31l-2.91,29.49-19.63.54"/><path id="Path-98" class="cls-6" d="M499.32,401.69a19.06,19.06,0,0,1-7.19,1.88,31.45,31.45,0,0,1-10.93-1.17"/><path id="Path-104" class="cls-6" d="M449,404.09a9.9,9.9,0,0,1-5.73-.37q-3.37-1.07-7.24-6.18"/><path id="Path-105" class="cls-3" d="M448.09,407.81c-1.48.63-4,.46-7.46-.49s-6.22-3.41-8.17-7.35q-4.38-.3-9.28,8c-4.9,8.25-2.9,19.16-6.81,24.59q-3.92,5.42-12,9.74,25.46,4.77,35.28-9.12T448.09,407.81Z"/><path id="Path-93" class="cls-2" d="M557.72,545.84q26.55,23.13,36.08,18.8c6.36-2.89,79-25.47,79-25.47s9.78-.24,13.33,0c10.66.74,30.88-14.16,23.23-19.87-3.42-2.56-21.7-7.86-28.39-7-2,.24-6.76-7.68-9.73-6.35-3.69,1.65-5.83,12.84-11,16.16l-69.09-1.87-10.55-6.14Z"/><path id="Path-93-2" data-name="Path-93" class="cls-6" d="M665.25,519q-2.41,1.41-5.07,3.11l-69.09-1.87"/><path id="Path-93-3" data-name="Path-93" class="cls-6" d="M569.71,555.53q16.89,12.38,24.09,9.11c6.36-2.89,79-25.47,79-25.47s6.69.24,13.33,0,30.83-12.26,23.23-19.87-21.7-7.86-28.39-7a18.7,18.7,0,0,0-3.67.88"/><path class="cls-3" d="M585.57,510.76l-2.92,4.53L561,548.67l-3,4.6-.78,1.21-2.81-2.64L523,522.25c-2.42,1.16-6.71,22.6-6.71,22.6s.12,3.79.31,9.93c.17,5.66.4,13.31.63,21.81.29,9.81.6,20.77.86,31.11l-63.46-5.48-28.47,18.2L402.9,635.27l-4.88-.38-1.59-.12s5.13-50.87,7.82-97.79q.18-3.15.35-6.26c-2.11-6.13-3.92-12.1-5.43-17.85a222,222,0,0,1-4.87-23.43,0,0,0,0,0,0,0c-2.57-17.09-2.34-30.75-.43-38.81a19.92,19.92,0,0,1,2-5.51c5.53-9.42,20.94-13.08,40.37-15.78,16.22.47,27.89,28,48.14,28.29,16.22.11,24-23.54,30.44-25.58S557.56,463.49,585.57,510.76Z"/><path id="Path-93-4" data-name="Path-93" class="cls-2" d="M544.5,569.1c6.38-5.27,14.2-12,15.1-13.56,2.16-3.69-21.74-7.75-28.42-6.9q-6.69.86-20.72,9.92l-53-1-6.83-18.27L410,550.79c3.56,23.21,9.09,34.71,15.42,37.66s97.67-12.85,97.67-12.85,10.43,2,13.34-.07"/><path id="Path-93-5" data-name="Path-93" class="cls-6" d="M545,568.67c6.28-5.21,13.72-11.64,14.6-13.15,2.15-3.69-21.75-7.74-28.43-6.89q-6.67.86-20.71,9.92l-53-1-4.06-10.88"/><path id="Path-88" class="cls-3" d="M408.49,557l46.28-15.41c-11.89-48.43-9.69-71.43-12.36-79.56S426,432.83,407.58,437.2,390.47,469.62,392,477.77,408.49,557,408.49,557Z"/><path class="cls-7" d="M521.2,494.19c5.36,9.39,5.83,25-2.74,39.52"/><path class="cls-6" d="M677.05,513.9c-.28-3.4-1.08-10.13-6.71-8s-2.23,11.63-5.46,13.38"/><path class="cls-7" d="M444.32,496.43c8.37,13.57,6.33,42.82,6.33,42.82"/><path id="Path-89" class="cls-5" d="M406.11,592c51.21,18.3,97.21,17.89,97.21,17.89S541.47,633,578,648.78c28.73,11.49,43.47,17.16,46.24,28s-14.68,65.86-22.53,74.2-34.34,20.81-46.42,23.26c-94.72-54.69-52.47-74.76-138.73-106.53C394.63,650.7,363.22,619.18,406.11,592Z"/><path id="Path-94" class="cls-2" d="M529.08,706.2l1.81,19.91-1.83,192.71c.39,13.7,2.66,18,6.53,19.78s32.83,3.07,87.21,4.18a1.63,1.63,0,0,0,1.36-.66,1.67,1.67,0,0,0-.34-2.32l-59.37-37.27,19.77-187.2-11.33-23C567.09,682.65,525.82,690.23,529.08,706.2Z"/><path id="Path-94-2" data-name="Path-94" class="cls-4" d="M530.13,805.62l-1.07,113.2c.39,13.7,2.66,18,6.53,19.78s32.83,3.07,87.21,4.18a1.63,1.63,0,0,0,1.36-.66,1.67,1.67,0,0,0-.34-2.32l-59.37-37.27,5.08-48"/><path id="Path-94-3" data-name="Path-94" class="cls-2" d="M545.73,692.29l7.58,8.48,26.17,186.81q3.85,20.19,10.09,21.41,6.06,1.18,85.93-15.46a1.66,1.66,0,0,0,.33-3.14L608.24,860.6,594.17,684.5,577,658.59C567.09,653,535,680,545.73,692.29Z"/><path id="Path-94-4" data-name="Path-94" class="cls-4" d="M567.46,801.8l12,85.78q3.85,20.19,10.09,21.41,6.06,1.18,85.93-15.46a1.66,1.66,0,0,0,.33-3.14L608.24,860.6l-4.79-60"/><path class="cls-4" d="M479.35,637.78S493.22,659,508.92,655,532,676.79,532,676.79"/><path class="cls-2" d="M297,791.75V910.14c0,26.33-26.95,26.33-26.95,0V792.44"/><path class="cls-4" d="M297,798V910.14c0,26.33-26.95,26.33-26.95,0V798.79"/><path class="cls-2" d="M931.51,790.3V910.14c0,26.33-27,26.33-27,0v-118"/><path class="cls-4" d="M931.51,798V910.14c0,26.33-27,26.33-27,0V799"/><rect class="cls-5" x="267.49" y="579.11" width="666.56" height="214.84" transform="translate(1201.55 1373.06) rotate(-180)"/><line class="cls-4" x1="929.48" y1="616.63" x2="272.71" y2="616.63"/><polygon class="cls-2" points="786.45 566.15 632.16 563.4 630.57 571.59 785.75 572.57 786.45 566.15"/><path class="cls-2" d="M785.42,572.57l-.83,5.5-185.88-.23a2.49,2.49,0,0,1-2.47-2.39l-.07-2.25a1.75,1.75,0,0,1,1.76-1.83H627.8"/><line class="cls-2" x1="627.8" y1="571.36" x2="786.81" y2="571.31"/><path class="cls-4" d="M785.49,571.24l-1,6.44-185.78.16a2.49,2.49,0,0,1-2.47-2.39l-.07-2.25a1.75,1.75,0,0,1,1.76-1.83H627.8"/><path class="cls-5" d="M800.71,474.12l-13.82,93.94a3.71,3.71,0,0,1,0,.47l-155.69.05a3.69,3.69,0,0,1,0-.47L645,474.16a9.19,9.19,0,0,1,1.16-3.34,10,10,0,0,1,2.67-3,9.74,9.74,0,0,1,1.24-.77,8.93,8.93,0,0,1,4.27-1.1l139.24-.05a7.06,7.06,0,0,1,7.17,8.2"/><path class="cls-2" d="M705.68,516.85A12.16,12.16,0,0,0,718.06,531a16.75,16.75,0,0,0,16.13-14.15,12.16,12.16,0,0,0-12.38-14.14,16.72,16.72,0,0,0-16.13,14.15"/><path class="cls-4" d="M730.86,504.67a13.65,13.65,0,0,0-8.9-3.11,18.08,18.08,0,0,0-17.43,15.29"/><path class="cls-4" d="M723.12,531.27a18.18,18.18,0,0,0,12.22-14.43,14.15,14.15,0,0,0-.94-7.4"/><path class="cls-4" d="M704.53,516.85a13.06,13.06,0,0,0,8.89,14.59"/><path class="cls-4" d="M637.54,568.75l12.69-89.14a8.89,8.89,0,0,1,8.56-7.57l45.7.31"/><rect class="cls-3" x="896.51" y="913.09" width="42.99" height="19.51" rx="9.75" transform="translate(1836.02 1845.7) rotate(-180)"/><rect class="cls-3" x="260.49" y="913.09" width="42.99" height="19.51" rx="9.75" transform="translate(563.98 1845.7) rotate(-180)"/><line class="cls-4" x1="917.33" y1="576.52" x2="821.78" y2="576.52"/><line class="cls-4" x1="907.31" y1="570.35" x2="811.77" y2="570.35"/><line class="cls-4" x1="915.78" y1="563.42" x2="820.24" y2="563.42"/><polygon class="cls-5" points="583.94 579.26 446.31 579.26 444.09 572.04 549.49 572.04 578.9 554.36 586.16 554.36 583.94 579.26"/><line class="cls-4" x1="524.36" y1="571.27" x2="538.4" y2="571.27"/><line class="cls-4" x1="500.71" y1="571.27" x2="514.75" y2="571.27"/><line class="cls-4" x1="477.06" y1="571.27" x2="491.1" y2="571.27"/><line class="cls-4" x1="453.41" y1="571.27" x2="467.45" y2="571.27"/><polyline class="cls-4" points="448.85 579.33 579.11 579.33 582.6 559.28"/><rect class="cls-5" x="747.96" y="259.23" width="118.35" height="155.68" rx="2.72" transform="translate(1144.21 -470.06) rotate(90)"/><rect class="cls-3" x="844.29" y="344.18" width="23.87" height="34.38" transform="translate(1712.44 722.74) rotate(-180)"/><rect class="cls-3" x="811.56" y="325.36" width="23.87" height="53.2" transform="translate(1647 703.92) rotate(-180)"/><rect class="cls-3" x="778.84" y="343.3" width="23.87" height="35.27" transform="translate(1581.55 721.86) rotate(-180)"/><rect class="cls-3" x="746.12" y="332.58" width="23.87" height="45.98" transform="translate(1516.11 711.15) rotate(-180)"/><line class="cls-4" x1="873.54" y1="377.41" x2="740.73" y2="377.41"/><rect class="cls-5" x="582.72" y="259.23" width="118.35" height="155.68" rx="2.72" transform="translate(1283.79 674.15) rotate(-180)"/><line class="cls-4" x1="696.52" y1="289.26" x2="586.65" y2="289.26"/><line class="cls-4" x1="696.52" y1="410.47" x2="586.65" y2="410.47"/><line class="cls-4" x1="696.52" y1="271" x2="586.65" y2="271"/><line class="cls-4" x1="696.52" y1="264.59" x2="586.65" y2="264.59"/><line class="cls-4" x1="696.52" y1="313.02" x2="586.65" y2="313.02"/><line class="cls-4" x1="696.52" y1="336.77" x2="586.65" y2="336.77"/><line class="cls-4" x1="696.52" y1="360.53" x2="586.65" y2="360.53"/><line class="cls-4" x1="696.52" y1="384.28" x2="586.65" y2="384.28"/><line class="cls-4" x1="688.65" y1="264.65" x2="688.65" y2="410.04"/><line class="cls-4" x1="646.42" y1="264.65" x2="646.42" y2="410.04"/><line class="cls-4" x1="696.6" y1="264.65" x2="696.6" y2="410.04"/><line class="cls-4" x1="586.41" y1="264.65" x2="586.41" y2="410.04"/><text class="cls-8" transform="matrix(-1, 0, 0, 1, 682.41, 284.28)">$</text><text class="cls-8" transform="matrix(-1, 0, 0, 1, 673.38, 284.28)">$</text><text class="cls-8" transform="matrix(-1, 0, 0, 1, 640.15, 284.28)">$</text><text class="cls-8" transform="matrix(-1, 0, 0, 1, 630.86, 284.28)">$</text><line class="cls-4" x1="886.34" y1="388.07" x2="877.06" y2="396.91"/><line class="cls-4" x1="728.5" y1="388.07" x2="737.78" y2="396.91"/><line class="cls-4" x1="886.34" y1="286.96" x2="877.06" y2="278.11"/><line class="cls-4" x1="728.5" y1="286.96" x2="737.78" y2="278.11"/><line class="cls-4" x1="703.74" y1="266.06" x2="694.47" y2="257.22"/><line class="cls-4" x1="579.64" y1="266.06" x2="588.92" y2="257.22"/><line class="cls-4" x1="703.74" y1="408.17" x2="694.47" y2="417.01"/><line class="cls-4" x1="579.64" y1="408.17" x2="588.92" y2="417.01"/><rect class="cls-9" width="1200" height="1200"/></svg>